<svg width="100%" viewBox="0 0 24 24" fill="none" xmlns="http://www.w3.org/2000/svg">
    <path id="Vector" d="M21.7206 16.9134L16.9282 12.7269C16.7456 12.5625 16.5051 12.4775 16.2598 12.4904C16.0144 12.5033 15.7843 12.6131 15.6199 12.7958C15.4556 12.9784 15.3705 13.2188 15.3834 13.4642C15.3963 13.7095 15.5062 13.9397 15.6888 14.104L18.6359 16.6839H5.50712C5.10827 16.7252 4.70921 16.6077 4.39643 16.3568C4.08366 16.1059 3.88236 15.7418 3.83619 15.3435V2.5177C3.83619 2.27421 3.73946 2.04069 3.56728 1.86851C3.39511 1.69634 3.16159 1.59961 2.91809 1.59961C2.6746 1.59961 2.44108 1.69634 2.2689 1.86851C2.09673 2.04069 2 2.27421 2 2.5177V15.371C2.04515 16.2568 2.43967 17.0886 3.09708 17.6841C3.75448 18.2796 4.62115 18.5901 5.50712 18.5476H18.6726L15.6888 21.1091C15.505 21.2687 15.3922 21.4946 15.3749 21.7374C15.3577 21.9801 15.4376 22.2197 15.597 22.4036C15.684 22.5027 15.7914 22.5819 15.9118 22.6358C16.0322 22.6896 16.1628 22.7169 16.2947 22.7158C16.5147 22.7132 16.7265 22.6318 16.8915 22.4862L21.6839 18.2997C21.7832 18.2136 21.8627 18.1071 21.9173 17.9875C21.9718 17.8679 22 17.738 22 17.6066C22 17.4751 21.9718 17.3452 21.9173 17.2257C21.8627 17.1061 21.7832 16.9996 21.6839 16.9134H21.7206Z" fill="currentColor"/>
</svg>
